<svg id="Слой_1" data-name="Слой 1" xmlns="http://www.w3.org/2000/svg" xmlns:xlink="http://www.w3.org/1999/xlink" viewBox="0 0 126.75 40.32"><defs><style>.cls-1{fill:none;}.cls-2{clip-path:url(#clip-path);}.cls-3{fill:url(#Безымянный_градиент_2);}</style><clipPath id="clip-path"><path class="cls-1" d="M37.36.72l-10.65,27L22.39,4.76a4.77,4.77,0,0,0-4.72-4H.24L0,1.87A42.67,42.67,0,0,1,10.1,5.24c1.51.82,1.94,1.53,2.44,3.48l8.16,31.6H31.53L48.12.72Zm15.16,0-8.47,39.6H54.29L62.76.72Zm58.72,10.7,3.1,14.87h-8.49ZM109.74.72a4.66,4.66,0,0,0-4.36,2.91L90,40.32h10.75l2.14-5.92H116l1.24,5.92h9.47L118.48.72ZM65.55,13.09c-.07,5.7,5.08,8.88,9,10.77s5.33,3.19,5.32,4.92c0,2.66-3.19,3.83-6.13,3.88a21.53,21.53,0,0,1-10.52-2.5l-1.86,8.67a30.88,30.88,0,0,0,11.39,2.1c10.76,0,17.8-5.31,17.83-13.54,0-10.45-14.45-11-14.35-15.69,0-1.43,1.39-2.93,4.35-3.32a19.36,19.36,0,0,1,10.1,1.77l1.79-8.39A27.34,27.34,0,0,0,82.85,0C72.73,0,65.61,5.38,65.55,13.09"/></clipPath><linearGradient id="Безымянный_градиент_2" x1="-6753.99" y1="-2397.98" x2="-6752.99" y2="-2397.98" gradientTransform="matrix(112.33, 0, 0, -112.33, 758707.93, -269353.04)" gradientUnits="userSpaceOnUse"><stop offset="0" stop-color="#262755"/><stop offset="1" stop-color="#253789"/></linearGradient></defs><title>visa</title><g class="cls-2"><rect class="cls-3" x="-3.13" y="-21.34" width="133" height="83.61" transform="translate(-3.13 24.05) rotate(-20.98)"/></g></svg>