<svg id="Слой_1" data-name="Слой 1" xmlns="http://www.w3.org/2000/svg" xmlns:xlink="http://www.w3.org/1999/xlink" viewBox="0 0 126.02 107.38"><defs><style>.cls-1{fill:#292e67;}.cls-2{clip-path:url(#clip-path);}.cls-3{fill:#fff;}</style><clipPath id="clip-path"><path class="cls-1" d="M41.41.51,33.86,19.58,30.81,3.37A3.38,3.38,0,0,0,27.47.51H15.13L15,1.33a30.1,30.1,0,0,1,7.15,2.38,3.05,3.05,0,0,1,1.72,2.46l5.78,22.36h7.67L49,.51Zm10.72,0-6,28h7.25l6-28ZM93.69,8.08l2.2,10.53h-6ZM92.63.51a3.29,3.29,0,0,0-3.08,2.06l-10.88,26h7.61l1.51-4.18h9.3L98,28.53h6.7L98.82.51ZM61.35,9.26c0,4,3.6,6.29,6.35,7.63s3.77,2.25,3.76,3.48c0,1.88-2.25,2.71-4.34,2.74a15,15,0,0,1-7.44-1.77l-1.32,6.14A21.87,21.87,0,0,0,66.43,29C74,29,79,25.21,79.05,19.39c0-7.4-10.23-7.81-10.16-11.11,0-1,1-2.08,3.07-2.35a13.66,13.66,0,0,1,7.15,1.25l1.27-5.94A19.49,19.49,0,0,0,73.6,0C66.44,0,61.4,3.81,61.35,9.26"/></clipPath></defs><title>visa_secure</title><path class="cls-1" d="M41.41.51,33.86,19.58,30.81,3.37A3.38,3.38,0,0,0,27.47.51H15.13L15,1.33a30.1,30.1,0,0,1,7.15,2.38,3.05,3.05,0,0,1,1.72,2.46l5.78,22.36h7.67L49,.51Zm10.72,0-6,28h7.25l6-28ZM93.69,8.08l2.2,10.53h-6ZM92.63.51a3.29,3.29,0,0,0-3.08,2.06l-10.88,26h7.61l1.51-4.18h9.3L98,28.53h6.7L98.82.51ZM61.35,9.26c0,4,3.6,6.29,6.35,7.63s3.77,2.25,3.76,3.48c0,1.88-2.25,2.71-4.34,2.74a15,15,0,0,1-7.44-1.77l-1.32,6.14A21.87,21.87,0,0,0,66.43,29C74,29,79,25.21,79.05,19.39c0-7.4-10.23-7.81-10.16-11.11,0-1,1-2.08,3.07-2.35a13.66,13.66,0,0,1,7.15,1.25l1.27-5.94A19.49,19.49,0,0,0,73.6,0C66.44,0,61.4,3.81,61.35,9.26"/><g class="cls-2"><rect class="cls-1" x="12.75" y="-15.1" width="94.14" height="59.18" transform="translate(-1.22 22.38) rotate(-20.98)"/></g><rect class="cls-1" x="0.11" y="47.57" width="125.91" height="59.81"/><path class="cls-3" d="M28.76,83.26a6.53,6.53,0,0,0,3.42,1c2,0,3.11-1,3.11-2.53s-.79-2.19-2.8-2.94c-2.43-.88-3.92-2.16-3.92-4.23,0-2.32,1.91-4,4.8-4a6.62,6.62,0,0,1,3.27.73l-.53,1.56a5.58,5.58,0,0,0-2.8-.7c-2,0-2.8,1.21-2.8,2.23,0,1.38.9,2.07,2.95,2.86,2.52,1,3.78,2.19,3.78,4.37s-1.68,4.3-5.19,4.3a7.65,7.65,0,0,1-3.79-1Z"/><path class="cls-3" d="M47.55,78.63H41.8V84h6.44V85.6H39.85V70.73h8.06v1.61H41.8V77h5.75Z"/><path class="cls-3" d="M61.09,85.14a9.52,9.52,0,0,1-3.93.7c-4.19,0-7.32-2.64-7.32-7.54a7.39,7.39,0,0,1,7.77-7.81,8.15,8.15,0,0,1,3.53.66l-.49,1.57a6.72,6.72,0,0,0-3-.62c-3.49,0-5.8,2.23-5.8,6.13,0,3.66,2.09,6,5.69,6a7.61,7.61,0,0,0,3.15-.62Z"/><path class="cls-3" d="M65.43,70.73v8.83c0,3.31,1.48,4.72,3.46,4.72,2.19,0,3.62-1.46,3.62-4.72V70.73h1.94v8.69c0,4.57-2.4,6.42-5.63,6.42-3,0-5.33-1.72-5.33-6.35V70.73Z"/><path class="cls-3" d="M77.77,70.93a21.94,21.94,0,0,1,3.69-.31c2.05,0,3.39.4,4.3,1.21a3.81,3.81,0,0,1,1.17,2.85,3.91,3.91,0,0,1-2.78,3.77v.07a3.74,3.74,0,0,1,2.16,3,23.89,23.89,0,0,0,1.15,4.08h-2a19.13,19.13,0,0,1-1-3.55c-.44-2-1.26-2.83-3-2.89H79.69V85.6H77.77Zm1.92,6.77h2c2.06,0,3.36-1.12,3.36-2.82,0-1.92-1.39-2.76-3.42-2.76a8.22,8.22,0,0,0-1.9.16Z"/><path class="cls-3" d="M97.31,78.63H91.55V84H98V85.6H89.61V70.73h8v1.61H91.55V77h5.76Z"/></svg>